<svg width="47" height="39" viewBox="0 0 47 39" fill="none" xmlns="http://www.w3.org/2000/svg">
<path d="M45.3651 15.1241C44.9169 13.9443 43.9966 12.8911 42.8765 12.1316C39.6429 10.0726 34.7149 9.92601 31.383 11.7874C29.5659 12.7164 28.3716 14.5549 27.9999 16.4482C27.3257 19.5588 27.4998 23.2598 29.8896 25.5913C32.6762 28.0409 36.7319 28.5821 40.3383 27.5758C40.5096 27.5428 41.0526 27.4057 41.4271 27.2065L41.5326 27.1611C42.6527 26.6944 43.7209 25.9344 44.5184 24.9052C46.359 22.2065 46.4852 18.163 45.3651 15.1241ZM39.4933 22.1091C39.3661 22.699 38.9704 23.3102 38.3464 23.5318C37.353 23.97 36.0091 23.8485 35.0888 23.3359C34.317 22.7947 34.2176 21.8886 34.1183 21.0312C34.0429 19.3411 33.9213 17.5513 34.3934 16.0061C34.7634 15.0491 35.7842 14.8028 36.7073 14.7306C37.6767 14.7306 38.6205 14.879 39.2193 15.663C39.5921 16.2255 39.5692 16.9614 39.6429 17.6241C39.6167 19.0204 39.7417 20.6859 39.4933 22.1091ZM10.0107 23.6314C9.18919 23.581 8.26888 23.6532 7.47359 23.5553L7.49815 14.9489L7.54838 14.8773L10.0107 14.8532C10.0364 13.4563 10.0609 11.9581 9.98503 10.6849L0.607321 10.6586L-0.936934 10.6855C-0.961491 11.9839 -0.961491 13.5022 -0.936934 14.8275C-0.0903006 14.8538 0.70443 14.8275 1.52595 14.9041V23.2391L1.50195 23.5816L-0.961491 23.632C-1.01284 24.9799 -1.01284 26.3292 -0.961491 27.6771H10.0101L10.0107 23.6314ZM37.6254 29.5139C36.5817 31.011 35.2629 32.4572 33.8231 33.5821C33.7706 33.6587 33.6216 33.6296 33.5741 33.5591C32.9502 33.1679 32.2788 32.8478 31.6805 32.4572C32.4775 31.5018 33.2493 30.5459 33.8465 29.4876H33.0724C32.454 30.3982 31.8055 31.3535 30.9851 32.16C29.8896 31.7195 28.895 31.3278 27.7755 31.0312L27.651 30.9377C27.8252 30.4424 28.1478 29.9773 28.2465 29.4865H27.5751L26.9038 30.8112C25.4376 30.4928 23.8197 30.3193 22.3268 30.2225C22.2515 30.0025 22.3502 29.6835 22.2515 29.4865H21.6046C21.5533 29.7814 21.6794 30.0036 21.5298 30.2482C19.9873 30.3193 18.4949 30.4928 17.0533 30.7899L16.3792 29.4865C16.133 29.4865 15.8562 29.4395 15.6843 29.5128L16.3049 30.9595L16.2307 31.0312C15.1157 31.3547 14.0194 31.7399 12.9469 32.1852L12.8481 32.1348C12.1499 31.3748 11.4779 30.5448 10.9299 29.7109C10.8066 29.2917 10.3087 29.5369 10.0347 29.4876C10.6296 30.5678 11.4283 31.5225 12.223 32.5047C11.5516 32.8982 10.8825 33.3369 10.1826 33.6587C8.66077 32.4965 7.33416 31.0976 6.25304 29.5151C5.9539 29.4669 5.75689 29.4887 5.45607 29.5151C7.24757 32.31 10.0347 34.7607 12.9457 36.2074C12.9457 36.2074 12.9457 36.1856 12.9725 36.1856C12.9937 36.1856 13.0434 36.2309 12.9937 36.2567C14.9605 37.2131 17.0517 37.8992 19.264 38.1947C26.9026 39.1988 34.1931 35.9399 38.4201 29.5151C38.1559 29.4878 37.8896 29.4874 37.6254 29.5139ZM27.2531 31.7201L27.3262 31.6708C28.3989 31.916 29.4169 32.2596 30.3628 32.7241C29.5659 33.6291 28.5457 34.4154 27.6014 35.0769C27.0299 35.4188 26.4556 35.7905 25.8579 36.0826L24.7902 35.617L24.8634 35.4474C25.7608 34.2469 26.5572 33.0196 27.2531 31.7201ZM22.3502 30.9841C23.7695 31.011 25.1882 31.1576 26.5047 31.475L26.5309 31.5494C25.8356 32.8719 24.9627 34.1496 24.019 35.3483C23.5937 35.3987 23.1974 35.2291 22.775 35.2028L22.3497 35.1525C22.3011 33.7057 22.2749 32.4309 22.3502 30.9841ZM17.5506 31.4252C18.8443 31.18 20.1871 30.9841 21.5795 30.9841L21.6052 35.1317C21.0817 35.2504 20.5096 35.2504 20.0118 35.3763C18.9916 34.1719 18.1467 32.8719 17.4261 31.5225L17.5506 31.4252ZM13.5429 32.7504C14.5157 32.2831 15.5342 31.9378 16.5778 31.6703L16.6789 31.696C17.3982 33.0448 18.2951 34.3186 19.1903 35.5935C18.8448 35.791 18.4196 35.9091 18.0724 36.1083C16.39 35.2749 14.859 34.164 13.5435 32.8221V32.7504H13.5429ZM16.7536 36.9422C14.6636 36.401 12.7214 35.4698 10.9305 34.1971V34.121C11.5276 33.7567 12.127 33.3632 12.7716 33.0907C14.1909 34.4921 15.6575 35.5465 17.2498 36.5494C17.1259 36.6965 16.9272 36.8443 16.7536 36.9422ZM25.9829 37.259C23.3464 37.8265 20.4092 37.8483 17.7733 37.212C17.7231 37.09 17.8977 37.0637 17.972 36.992C20.2858 35.495 23.8917 35.495 26.1581 37.1112C26.2318 37.259 26.0331 37.212 25.9829 37.259ZM28.3721 36.5751L27.2029 36.9417C27.0031 36.8437 26.8301 36.6965 26.6543 36.5488L26.7045 36.4738C28.2973 35.5459 29.7395 34.4148 31.1085 33.0666C31.7804 33.3358 32.4278 33.7057 33.0266 34.1205C31.632 35.2291 30.014 35.9612 28.3721 36.5751ZM6.20448 8.79606C6.81987 7.94206 7.49303 7.13145 8.21921 6.36996C8.86382 5.75714 9.46321 5.16894 10.1608 4.72569C10.8082 5.14208 11.5287 5.48906 12.1505 5.8797C11.3797 6.83111 10.5833 7.79148 10.0113 8.81845C10.1843 8.89512 10.5091 8.87106 10.7586 8.81845C11.3797 7.91293 12.0494 7.00629 12.8486 6.19647C13.9157 6.5899 14.9621 7.00517 16.0583 7.30066L16.1548 7.39804L15.5353 8.81845C15.8099 8.87106 15.984 8.84531 16.2558 8.81845C16.4791 8.4043 16.6521 7.93979 16.901 7.52061C18.3459 7.84073 19.8639 8.01143 21.4065 8.059C21.6041 8.23305 21.4556 8.59906 21.5304 8.81845H22.2018C22.2749 8.5778 22.1767 8.30469 22.2749 8.08642C23.7193 8.01031 25.2362 7.86312 26.6342 7.51949L26.7553 7.54523L27.4273 8.81733C27.6516 8.81733 27.9496 8.86994 28.1238 8.76696L27.5004 7.34879L27.5523 7.29955C28.6947 7.00517 29.7662 6.56416 30.8607 6.12371C31.6342 6.93241 32.3536 7.8883 33.0026 8.81677C33.275 8.81677 33.549 8.84363 33.7483 8.7664C33.441 8.21906 33.0826 7.70223 32.6778 7.22287C32.3492 6.75336 31.9826 6.31179 31.5817 5.90265V5.7756L33.3236 4.77214L33.5747 4.6742C35.0895 5.82395 36.415 7.20479 37.5031 8.7664C37.8017 8.7664 38.0512 8.86938 38.3007 8.74569C34.9632 3.74853 29.466 0.533316 23.5228 0.0704815L23.4966 0.118052L23.4458 0.0704815C22.775 -0.001714 21.9506 -0.0302564 21.2301 0.0419391C20.9572 0.0206722 20.6346 0.0419391 20.3104 0.0704815C14.3404 0.533316 8.84261 3.59967 5.40752 8.81957C5.65643 8.79606 5.95501 8.89568 6.20448 8.79606ZM16.531 6.64195L16.4316 6.66322C15.4103 6.39626 14.4141 6.07446 13.4687 5.6592L13.5167 5.51201C14.8851 4.21305 16.3278 3.13347 17.9201 2.30183C18.2951 2.44902 18.6679 2.57046 19.0407 2.74451L18.9676 2.93592C18.0205 4.11567 17.276 5.38776 16.531 6.64195ZM21.4802 7.30178C20.7853 7.39972 20.1631 7.27996 19.4638 7.22567C18.7952 7.12717 17.9474 7.0561 17.276 6.83223C17.9976 5.49018 18.8448 4.18842 19.8639 2.9902L21.4567 3.20791C21.5304 4.48056 21.4802 5.95246 21.4802 7.30178ZM22.2509 7.32809C22.2018 6.02465 22.2275 4.58018 22.2509 3.23141C22.7504 3.15978 23.2951 3.08366 23.794 3.01147C24.764 4.23543 25.7117 5.49018 26.3591 6.83223C25.0138 7.15861 23.6349 7.32504 22.2509 7.32809ZM30.1898 5.60939C29.2176 6.02409 28.2214 6.41697 27.1532 6.64195C26.3825 5.34243 25.537 4.04347 24.5888 2.78817C24.9376 2.5962 25.3629 2.44902 25.7351 2.2537C27.3553 3.06184 28.9207 4.21305 30.2378 5.53271L30.1898 5.60939ZM27.0031 1.41757C29.0932 1.9582 31.0588 2.88834 32.8503 4.16324L32.8006 4.26118L31.0856 5.21595H30.9589C29.6423 3.89684 28.1003 2.74451 26.5309 1.83507C26.5806 1.66326 26.8306 1.53958 27.0031 1.41757ZM26.0091 1.17132V1.22337C23.8432 2.78817 20.3361 2.93592 18.0484 1.48921C17.9201 1.39127 17.6745 1.3437 17.6477 1.17188C20.2864 0.561859 23.3944 0.512609 26.0091 1.17132ZM10.8317 4.21305C12.4005 3.06184 14.1412 2.20389 15.9829 1.61513C16.0583 1.53846 16.1062 1.46626 16.2045 1.46626V1.51663C16.4032 1.56476 16.5533 1.34258 16.7269 1.48809C16.877 1.61513 17.0528 1.71195 17.1756 1.83395C15.6341 2.78817 14.1155 3.91811 12.7219 5.28815C12.05 5.04749 11.4305 4.67756 10.8311 4.26118L10.8317 4.21305ZM21.5058 23.8228C19.1674 24.4614 16.6281 23.9745 14.937 22.2065C14.7389 21.9614 14.6133 21.6692 14.4135 21.4252L11.056 21.4487C11.003 23.4338 10.9796 25.7144 11.056 27.6766L14.7863 27.6525L14.836 26.475C15.2607 26.6709 15.6843 26.9155 16.1062 27.1354C18.6936 28.2155 22.0243 28.4607 24.5877 27.1354C26.455 26.1084 27.4507 24.1233 27.1761 21.986C26.9038 19.9047 24.9125 18.0158 22.8988 17.5026L16.8764 15.7604L16.4311 15.5388C16.2318 15.3687 16.1068 15.1493 16.1554 14.8773C16.6281 14.0703 17.7242 14.3154 18.5451 14.3372C20.2864 14.5829 22.0773 15.1711 23.0981 16.7655C24.1914 16.7655 25.46 16.7868 26.6532 16.7398C26.704 14.7301 26.6336 12.9661 26.6041 10.9306C25.4845 10.9048 24.1155 10.9048 22.9976 10.9563C22.9474 11.2479 23.0456 11.6632 22.9212 11.9587L21.7776 11.3453C19.0396 10.1935 15.2077 10.0732 12.7208 11.863C11.1029 13.0377 10.6068 15.1481 11.0298 17.0107C11.3518 18.773 13.0434 20.0737 14.6613 20.6848C16.8753 21.4683 19.1881 22.0358 21.4311 22.7947C21.6532 22.8943 21.9512 23.1165 21.9032 23.3857C21.9043 23.6034 21.6789 23.7293 21.5058 23.8228Z" fill="#3B3B3B"/>
</svg>
